<?xml version="1.0" encoding="utf-8"?>
<!-- Generator: Adobe Illustrator 21.1.0, SVG Export Plug-In . SVG Version: 6.00 Build 0)  -->
<svg version="1.1" id="Capa_1" xmlns="http://www.w3.org/2000/svg" xmlns:xlink="http://www.w3.org/1999/xlink" x="0px" y="0px"
	 viewBox="0 0 201.6 42.6" style="enable-background:new 0 0 201.6 42.6;" xml:space="preserve">
<style type="text/css">
	.st0{fill-rule:evenodd;clip-rule:evenodd;fill:#0C776F;}
	.st1{opacity:0.5;}
	.st2{fill:#0C776F;}
</style>
<g>
	<g>
		<path class="st0" d="M33,17.8c0,0,1,3.2,6.4,10.4c0,0,7.4-18,31.3-28.2c0,0-28.6,18.3-30.6,35.6L33,17.8z"/>
		<path class="st0" d="M39.1,36.1c-0.9-0.1-1.7-0.4-2.5-0.8c-0.8-0.4-1.4-1-2-1.6c-0.6-0.6-1-1.3-1.3-2.2c-0.3-0.8-0.5-1.7-0.5-2.6
			c0-0.9,0.2-1.8,0.5-2.6c0.3-0.8,0.8-1.5,1.3-2.2c0.6-0.6,1.2-1.2,2-1.6c0.8-0.4,1.6-0.7,2.5-0.8v-2.2c-1.2,0.1-2.3,0.4-3.4,1
			c-1,0.5-1.9,1.2-2.7,2c-0.8,0.8-1.4,1.8-1.8,2.8c-0.4,1.1-0.7,2.2-0.7,3.4c0,1.2,0.2,2.4,0.7,3.4c0.4,1.1,1,2,1.8,2.8
			c0.8,0.8,1.7,1.5,2.7,2c1,0.5,2.2,0.9,3.4,1V36.1z M41.2,21.8c0.9,0.1,1.7,0.4,2.5,0.8c0.8,0.4,1.4,1,2,1.6c0.6,0.6,1,1.3,1.3,2.2
			c0.3,0.8,0.5,1.7,0.5,2.6c0,0.9-0.2,1.8-0.5,2.6c-0.3,0.8-0.8,1.5-1.3,2.2c-0.6,0.6-1.2,1.2-2,1.6c-0.8,0.4-1.6,0.7-2.5,0.8v2.2
			c1.2-0.1,2.3-0.4,3.3-1c1-0.5,1.9-1.2,2.7-2c0.8-0.8,1.4-1.8,1.8-2.8c0.4-1.1,0.7-2.2,0.7-3.4c0-1.2-0.2-2.3-0.7-3.4
			c-0.4-1.1-1-2-1.8-2.8c-0.8-0.8-1.7-1.5-2.7-2c-1-0.5-2.2-0.9-3.3-1V21.8z M41.2,17.8c1.5,0.1,2.8,0.5,4.1,1.1
			c1.3,0.6,2.4,1.5,3.4,2.5c1,1,1.7,2.1,2.3,3.4c0.5,1.3,0.8,2.7,0.8,4.1s-0.3,2.8-0.8,4.2c-0.5,1.3-1.3,2.5-2.3,3.5
			c-1,1-2.1,1.8-3.4,2.5c-1.3,0.6-2.7,1-4.1,1.1v2.2c1.8-0.1,3.5-0.6,5-1.3c1.6-0.7,2.9-1.7,4.1-2.9c1.1-1.2,2.1-2.6,2.7-4.1
			c0.7-1.6,1-3.2,1-5c0-1.8-0.3-3.4-1-5c-0.7-1.6-1.6-3-2.7-4.1s-2.5-2.2-4.1-2.9c-1.6-0.8-3.2-1.2-5-1.3V17.8z M39.1,40.2
			c-1.5-0.1-2.9-0.5-4.1-1.1c-1.3-0.6-2.4-1.5-3.3-2.5c-0.9-1-1.7-2.2-2.2-3.5s-0.8-2.7-0.8-4.2s0.3-2.8,0.8-4.1
			c0.5-1.3,1.3-2.4,2.2-3.4c0.9-1,2.1-1.8,3.3-2.5c1.3-0.6,2.6-1,4.1-1.1v-2.2c-1.8,0.1-3.4,0.6-5,1.3c-1.5,0.8-2.9,1.7-4,2.9
			c-1.1,1.2-2,2.6-2.7,4.1c-0.7,1.6-1,3.2-1,5c0,1.8,0.3,3.4,1,5c0.7,1.6,1.6,2.9,2.7,4.1c1.1,1.2,2.5,2.2,4,2.9
			c1.5,0.7,3.2,1.2,5,1.3V40.2z"/>
	</g>
	<path class="st0" d="M0,17.7h8.8v1.9H0v2.2h8.8v20.5H11V21.8v-2.2v-1.9h1.9h2.2h8.8v-2.2h-8.8h-2.2H11H8.8H0V17.7z M23.9,19.6h-8.8
		h-2.2v2.2v20.5h2.2V21.8h8.8V19.6z"/>
	<path class="st0" d="M56.1,17.7h8.8v1.9h-8.8v2.2h8.8v20.5h2.2V21.8v-2.2v-1.9H69h2.2H80v-2.2h-8.8H69h-1.9h-2.2h-8.8V17.7z
		 M80,19.6h-8.8H69v2.2v20.5h2.2V21.8H80V19.6z"/>
</g>
<g class="st1">
	<path class="st2" d="M100.3,35.4H88.8l-2.6,7.2h-3.8L92.9,15h3.2l10.6,27.6H103L100.3,35.4z M89.9,32.4h9.4l-4.7-12.9L89.9,32.4z"
		/>
	<path class="st2" d="M110.4,42.6V15h7.8c2.4,0,4.5,0.5,6.4,1.6c1.8,1.1,3.3,2.6,4.3,4.5c1,2,1.5,4.2,1.5,6.8v1.8
		c0,2.6-0.5,4.9-1.5,6.8c-1,2-2.4,3.5-4.3,4.5c-1.9,1.1-4,1.6-6.5,1.6H110.4z M114.1,18v21.7h3.8c2.8,0,5-0.9,6.6-2.6
		c1.6-1.7,2.3-4.2,2.3-7.5V28c0-3.1-0.7-5.6-2.2-7.3c-1.5-1.7-3.6-2.6-6.3-2.6H114.1z"/>
	<path class="st2" d="M140.6,15l9,22.5l9-22.5h4.7v27.6h-3.6V31.9l0.3-11.6L151,42.6h-2.8l-9-22.3l0.4,11.6v10.8h-3.6V15H140.6z"/>
	<path class="st2" d="M173.7,42.6h-3.6V15h3.6V42.6z"/>
	<path class="st2" d="M201.6,42.6h-3.7L184,21.4v21.3h-3.7V15h3.7L198,36.4V15h3.6V42.6z"/>
</g>
</svg>
