<?xml version="1.0" encoding="utf-8"?>
<!-- Generator: Adobe Illustrator 22.0.0, SVG Export Plug-In . SVG Version: 6.00 Build 0)  -->
<svg version="1.1" id="Capa_1" xmlns="http://www.w3.org/2000/svg" xmlns:xlink="http://www.w3.org/1999/xlink" x="0px" y="0px"
	 viewBox="0 0 201.6 42.6" style="enable-background:new 0 0 201.6 42.6;" xml:space="preserve">
<style type="text/css">
	.st0{opacity:0.5;}
	.st1{fill:#FFFFFF;}
</style>
<g class="st0">
	<path class="st1" d="M100.3,35.4H88.8l-2.6,7.2h-3.8L92.9,15h3.2l10.6,27.6H103L100.3,35.4z M89.9,32.4h9.4l-4.7-12.9L89.9,32.4z"
		/>
	<path class="st1" d="M110.4,42.6V15h7.8c2.4,0,4.5,0.5,6.4,1.6c1.8,1.1,3.3,2.6,4.3,4.5c1,2,1.5,4.2,1.5,6.8v1.8
		c0,2.6-0.5,4.9-1.5,6.8c-1,2-2.4,3.5-4.3,4.5c-1.9,1.1-4,1.6-6.5,1.6H110.4z M114.1,18v21.7h3.8c2.8,0,5-0.9,6.6-2.6
		c1.6-1.7,2.3-4.2,2.3-7.5V28c0-3.1-0.7-5.6-2.2-7.3c-1.5-1.7-3.6-2.6-6.3-2.6h-4.2V18z"/>
	<path class="st1" d="M140.6,15l9,22.5l9-22.5h4.7v27.6h-3.6V31.9l0.3-11.6l-9,22.3h-2.8l-9-22.3l0.4,11.6v10.8H136V15H140.6z"/>
	<path class="st1" d="M173.7,42.6h-3.6V15h3.6V42.6z"/>
	<path class="st1" d="M201.6,42.6h-3.7L184,21.4v21.3h-3.7V15h3.7l14,21.4V15h3.6V42.6z"/>
</g>
<g>
	<path class="st1" d="M27,39L27,39v1.2c0,0.5-0.3,1.1-0.8,1.4c-0.8,0.6-1.8,0.4-2.3-0.4c-0.2-0.3-0.3-0.6-0.3-1v-19l-8.5,12.2
		L15,33.6c0,0,0,0-0.1,0.1l0,0.1v0c-0.6,0.6-1.5,0.8-2.2,0.3c-0.1-0.1-0.2-0.2-0.3-0.3v0l-0.1-0.1l-0.1-0.2L3.7,21.3v20.7
		c-1.9,0-3.4-1.1-3.4-3V15.8c0-0.9,0.8-1.7,1.7-1.7c0.5,0,0.9,0.2,1.2,0.5l0.1,0.1c0.1,0.1,0.1,0.2,0.2,0.3l10.2,14.6l10.2-14.7
		l0.2-0.2l0.1-0.1c0.3-0.3,0.7-0.5,1.2-0.5c1,0,1.7,0.8,1.7,1.7V39z"/>
	<path class="st1" d="M30.9,15.1c0-1,0.8-1.7,1.7-1.7c1,0,1.7,0.8,1.7,1.7s-0.8,1.7-1.7,1.7C31.7,16.8,30.9,16,30.9,15.1z
		 M34.4,40.3c0,0.9-0.8,1.7-1.7,1.7c-0.9,0-1.7-0.8-1.7-1.7V23.9c0-1.9,1.5-3.4,3.4-3.4V40.3z"/>
	<path class="st1" d="M78.4,39.6c-1.7,1.4-3.9,2.3-6.3,2.3c-5.6,0-10.2-4.8-10.2-10.8s3.8-10.8,9.4-10.8c5,0,7.8,3.8,8.4,8.8
		c0,0.1,0.1,0.3,0.1,0.4c0,0.5-0.2,0.9-0.6,1.2c-0.2,0.2-0.5,0.3-0.8,0.3h-0.1H65.6v0.1c0,4.3,3.1,7.7,6.9,7.7c1.5,0,3-0.6,4.1-1.5
		h0c0.2-0.2,0.5-0.3,0.9-0.3c0.8,0,1.4,0.6,1.4,1.5C78.9,39,78.7,39.4,78.4,39.6L78.4,39.6z M76.6,28.2c-0.7-2.8-2.4-4.9-5.3-4.9
		c-2.9,0-4.7,2.1-5.4,4.9H76.6z"/>
	<g>
		<path class="st1" d="M56,12.4c0-1,0.8-1.8,1.8-1.8c1,0,1.8,0.8,1.8,1.8v29.9c-2,0-3.6-1.5-3.7-3.5v-0.1c-2,2.3-4.9,3.8-8.1,3.8
			c-5.9,0-10.7-5.1-10.7-11.3S42,19.9,47.9,19.9c3.2,0,6.1,1.5,8.1,3.8V12.4z M56,31.3c0-4.5-3.8-8.4-7.8-8.4
			c-4.1,0-7.3,3.8-7.3,8.4s3.2,8.3,7.3,8.3C52.2,39.6,56,35.8,56,31.3z"/>
	</g>
</g>
</svg>
