<?xml version="1.0" encoding="utf-8"?>
<!-- Generator: Adobe Illustrator 22.0.0, SVG Export Plug-In . SVG Version: 6.00 Build 0)  -->
<svg version="1.1" id="Capa_1" xmlns="http://www.w3.org/2000/svg" xmlns:xlink="http://www.w3.org/1999/xlink" x="0px" y="0px"
	 viewBox="0 0 201.6 42.6" style="enable-background:new 0 0 201.6 42.6;" xml:space="preserve">
<style type="text/css">
	.st0{opacity:0.5;}
	.st1{fill:#EEB516;}
</style>
<g class="st0">
	<path class="st1" d="M106.4,35.8H95.6l-2.4,6.8h-3.6l9.9-25.9h3l10,25.9h-3.5L106.4,35.8z M96.6,33h8.8L101,20.9L96.6,33z"/>
	<path class="st1" d="M115.9,42.6V16.7h7.3c2.3,0,4.2,0.5,6,1.5c1.7,1,3.1,2.4,4,4.2c0.9,1.9,1.4,3.9,1.4,6.4v1.7
		c0,2.4-0.5,4.6-1.4,6.4c-0.9,1.9-2.3,3.3-4,4.2c-1.8,1-3.8,1.5-6.1,1.5H115.9z M119.4,19.5v20.4h3.6c2.6,0,4.7-0.8,6.2-2.4
		c1.5-1.6,2.2-3.9,2.2-7v-1.5c0-2.9-0.7-5.3-2.1-6.9c-1.4-1.6-3.4-2.4-5.9-2.4L119.4,19.5L119.4,19.5z"/>
	<path class="st1" d="M144.3,16.7l8.5,21.1l8.5-21.1h4.4v25.9h-3.4V32.5l0.3-10.9l-8.5,21h-2.6l-8.5-21l0.4,10.9v10.2h-3.4v-26
		H144.3z"/>
	<path class="st1" d="M175.4,42.6H172V16.7h3.4V42.6z"/>
	<path class="st1" d="M201.6,42.6h-3.5l-13.1-19.9v20h-3.5v-26h3.5l13.2,20.1V16.7h3.4V42.6z"/>
</g>
<path class="st1" d="M29.5,38.4L29.5,38.4v1.3c0,0.6-0.3,1.2-0.8,1.5c-0.8,0.6-2,0.4-2.6-0.4c-0.2-0.3-0.4-0.7-0.4-1.1V19l-9.2,13.3
	l-0.1,0.1c0,0,0,0-0.1,0.1l0,0.1v0c-0.6,0.7-1.7,0.9-2.4,0.3c-0.1-0.1-0.3-0.2-0.4-0.3v0l-0.1-0.1l-0.1-0.2L4,19v22.6
	c-2.1,0-3.7-1.2-3.7-3.3V13c0-1,0.8-1.9,1.9-1.9c0.5,0,1,0.2,1.3,0.6l0.1,0.1c0.1,0.1,0.1,0.2,0.2,0.3l11.2,16l11.1-16l0.2-0.3
	l0.1-0.1c0.4-0.4,0.8-0.6,1.3-0.6c1.1,0,1.9,0.8,1.9,1.9V38.4z"/>
<path class="st1" d="M33.7,12.3c0-1.1,0.8-1.9,1.9-1.9c1.1,0,1.9,0.8,1.9,1.9s-0.8,1.9-1.9,1.9C34.6,14.2,33.7,13.3,33.7,12.3z
	 M37.5,39.8c0,1-0.8,1.9-1.9,1.9c-1,0-1.9-0.8-1.9-1.9V21.9c0-2.1,1.7-3.8,3.7-3.8V39.8z"/>
<path class="st1" d="M85.6,39.1c-1.9,1.5-4.2,2.5-6.9,2.5c-6.2,0-11.1-5.3-11.1-11.8S71.8,18,77.9,18c5.4,0,8.5,4.1,9.2,9.6
	c0,0.1,0.1,0.3,0.1,0.5c0,0.5-0.3,1-0.7,1.3c-0.2,0.2-0.5,0.3-0.8,0.3h-0.1H71.6v0.1c0,4.7,3.4,8.5,7.6,8.5c1.7,0,3.3-0.6,4.5-1.7h0
	c0.3-0.2,0.6-0.3,0.9-0.3c0.8,0,1.5,0.7,1.5,1.6C86.2,38.4,86,38.8,85.6,39.1L85.6,39.1z M83.6,26.6c-0.8-3.1-2.7-5.4-5.8-5.4
	c-3.1,0-5.1,2.3-5.9,5.4H83.6z"/>
<g>
	<path class="st1" d="M61.1,9.4c0-1.1,0.9-2,2-2c1.1,0,2,0.9,2,2v32.7c-2.1,0-3.9-1.7-4-3.8v-0.1c-2.1,2.6-5.3,4.2-8.8,4.2
		c-6.5,0-11.7-5.5-11.7-12.4s5.2-12.4,11.7-12.4c3.5,0,6.7,1.6,8.8,4.2V9.4z M61.1,30c0-4.9-4.1-9.1-8.5-9.1c-4.4,0-8,4.2-8,9.1
		s3.5,9.1,8,9.1C57,39.1,61.1,34.9,61.1,30z"/>
</g>
</svg>
